# xmcd CD database file
#
# Track frame offsets:
#	182
#	11058
#	23695
#	38518
#	51889
#	66782
#	81338
#	97174
#	110117
#	122941
#	137038
#	155992
#	173837
#	188688
#	202790
#	216212
#	228527
#	242662
#	256176
#	269084
#	283160
#	297095
#
# Disc length: 4138 seconds
#
# Revision: 0
# Processed by: cddbd v1.5.1PL0 Copyright (c) Steve Scherf et al.
# Submitted via: CDex 1.51
#
DISCID=4c102816
DTITLE=Stuff Smith - 1944 - 1946
DYEAR=1944
DGENRE=Jazz
TTITLE0=Stop - Look
TTITLE1=Humoresque
TTITLE2=Don't Pay Him No mind
TTITLE3=Is Is
TTITLE4=Two Faced Woman
TTITLE5=Always
TTITLE6=Perdido
TTITLE7=My Thoughts
TTITLE8=Perdido - Part 1
TTITLE9=Perdido - Part 2
TTITLE10=Bugle Call Rag
TTITLE11=Desert Sands
TTITLE12=Time And Again
TTITLE13=Is Is
TTITLE14=Night Falls Again
TTITLE15=Up Jumped The Devil
TTITLE16=Louder And Funnier
TTITLE17=Gilded Kisses
TTITLE18=Black And Blue Rhapsody
TTITLE19=Nightmare
TTITLE20=After You've Gone
TTITLE21=St. James Infirmary
EXTD=YEAR: 1944
EXTT0=
EXTT1=
EXTT2=
EXTT3=
EXTT4=
EXTT5=
EXTT6=
EXTT7=
EXTT8=
EXTT9=
EXTT10=
EXTT11=
EXTT12=
EXTT13=
EXTT14=
EXTT15=
EXTT16=
EXTT17=
EXTT18=
EXTT19=
EXTT20=
EXTT21=
PLAYORDER=
